HIERARCHY
ROOT Hips
{
	OFFSET 0.00000 0.00000 0.00000
	CHANNELS 6 Xposition Yposition Zposition Zrotation Yrotation Xrotation 
	JOINT LHipJoint
	{
		OFFSET 0 0 0
		CHANNELS 3 Zrotation Yrotation Xrotation
		JOINT LeftUpLeg
		{
			OFFSET 1.62964 -1.40469 0.78906
			CHANNELS 3 Zrotation Yrotation Xrotation
			JOINT LeftLeg
			{
				OFFSET 2.29640 -6.30932 0.00000
				CHANNELS 3 Zrotation Yrotation Xrotation
				JOINT LeftFoot
				{
					OFFSET 2.29451 -6.30412 0.00000
					CHANNELS 3 Zrotation Yrotation Xrotation
					JOINT LeftToeBase
					{
						OFFSET 0.03611 -0.09921 1.56387
						CHANNELS 3 Zrotation Yrotation Xrotation
						End Site
						{
							OFFSET 0.00000 -0.00000 0.80291
						}
					}
				}
			}
		}
	}
	JOINT RHipJoint
	{
		OFFSET 0 0 0
		CHANNELS 3 Zrotation Yrotation Xrotation
		JOINT RightUpLeg
		{
			OFFSET -1.73712 -1.40469 0.78906
			CHANNELS 3 Zrotation Yrotation Xrotation
			JOINT RightLeg
			{
				OFFSET -2.28137 -6.26801 0.00000
				CHANNELS 3 Zrotation Yrotation Xrotation
				JOINT RightFoot
				{
					OFFSET -2.28681 -6.28298 0.00000
					CHANNELS 3 Zrotation Yrotation Xrotation
					JOINT RightToeBase
					{
						OFFSET -0.15927 -0.43759 1.61103
						CHANNELS 3 Zrotation Yrotation Xrotation
						End Site
						{
							OFFSET -0.00000 -0.00000 0.84630
						}
					}
				}
			}
		}
	}
	JOINT LowerBack
	{
		OFFSET 0 0 0
		CHANNELS 3 Zrotation Yrotation Xrotation
		JOINT Spine
		{
			OFFSET -0.04227 2.04338 -0.00225
			CHANNELS 3 Zrotation Yrotation Xrotation
			JOINT Spine1
			{
				OFFSET -0.02148 2.04482 -0.04273
				CHANNELS 3 Zrotation Yrotation Xrotation
				JOINT Neck
				{
					OFFSET 0 0 0
					CHANNELS 3 Zrotation Yrotation Xrotation
					JOINT Neck1
					{
						OFFSET 0.09180 1.44629 0.19359
						CHANNELS 3 Zrotation Yrotation Xrotation
						JOINT Head
						{
							OFFSET 0.00887 1.40645 0.14750
							CHANNELS 3 Zrotation Yrotation Xrotation
							End Site
							{
								OFFSET -0.00669 1.50671 0.03707
							}
						}
					}
				}
				JOINT LeftShoulder
				{
					OFFSET 0 0 0
					CHANNELS 3 Zrotation Yrotation Xrotation
					JOINT LeftArm
					{
						OFFSET 2.17674 1.86763 -0.06520
						CHANNELS 3 Zrotation Yrotation Xrotation
						JOINT LeftForeArm
						{
							OFFSET 4.65776 -0.00000 0.00000
							CHANNELS 3 Zrotation Yrotation Xrotation
							JOINT LeftHand
							{
								OFFSET 3.55539 -0.00000 0.00000
								CHANNELS 3 Zrotation Yrotation Xrotation
								JOINT LeftFingerBase
								{
									OFFSET 0 0 0
									CHANNELS 3 Zrotation Yrotation Xrotation
									JOINT LeftHandIndex1
									{
										OFFSET 0.70726 -0.00000 0.00000
										CHANNELS 3 Zrotation Yrotation Xrotation
										End Site
										{
											OFFSET 0.57022 -0.00000 0.00000
										}
									}
								}
								JOINT LThumb
								{
									OFFSET 0 0 0
									CHANNELS 3 Zrotation Yrotation Xrotation
									End Site
									{
										OFFSET 0.57892 -0.00000 0.57892
									}
								}
							}
						}
					}
				}
				JOINT RightShoulder
				{
					OFFSET 0 0 0
					CHANNELS 3 Zrotation Yrotation Xrotation
					JOINT RightArm
					{
						OFFSET -2.80694 1.55459 -0.32496
						CHANNELS 3 Zrotation Yrotation Xrotation
						JOINT RightForeArm
						{
							OFFSET -4.71925 -0.00000 -0.00000
							CHANNELS 3 Zrotation Yrotation Xrotation
							JOINT RightHand
							{
								OFFSET -3.56990 -0.00000 0.00000
								CHANNELS 3 Zrotation Yrotation Xrotation
								JOINT RightFingerBase
								{
									OFFSET 0 0 0
									CHANNELS 3 Zrotation Yrotation Xrotation
									JOINT RightHandIndex1
									{
										OFFSET -0.50776 -0.00000 0.00000
										CHANNELS 3 Zrotation Yrotation Xrotation
										End Site
										{
											OFFSET -0.40937 -0.00000 0.00000
										}
									}
								}
								JOINT RThumb
								{
									OFFSET 0 0 0
									CHANNELS 3 Zrotation Yrotation Xrotation
									End Site
									{
										OFFSET -0.41562 -0.00000 0.41562
									}
								}
							}
						}
					}
				}
			}
		}
	}
}
MOTION
Frames: 15
Frame Time: .0083333
8.9261 16.2776 31.4722 0 0 0 0 0 0 -21 0 0 0 0 0 0 0 0 0 0 0 0 0 0 21 0 0 0 0 0 0 0 0 0 0 0 0 0 0 0 0 0 0 0 0 0 0 -16 0 0 21 0 0 11 0 0 0 -8 0 0 0 0 0 0 0 0 0 0 0 0 0 0 0 0 0 0 0 0 8 0 0 0 0 0 0 0 0 0 0 0 0 0 0 0 0 0
8.9261 16.2776 31.4722 179.9810 -0.2310 -161.6730 0.0000 0.0000 0.0000 -18.3858 -14.2780 -11.5568 0.1705 2.6603 7.3344 0.2486 0.0263 -9.4282 4.8289 -13.1885 -40.0781 0.0000 0.0000 0.0000 19.4738 11.7875 -11.5416 -0.1747 -2.6921 7.4226 -2.1200 2.8124 -26.8201 -0.8462 5.8671 -16.3993 -4.5452 -0.8643 -23.9247 -0.5689 -0.0384 0.2747 1.9213 -0.4176 13.8063 -4.0896 -2.5506 1.3363 7.4086 -3.5348 -13.3249 3.0954 -2.2289 -3.9705 0.0000 0.0000 0.0000 -84.4523 -5.4692 17.4337 14.7312 -23.7703 -3.1168 -0.0000 0.0000 -7.1362 23.0401 -11.7458 -4.9482 -7.1250 0.0000 -0.0000 -2.8839 17.2579 1.9009 0.0000 0.0000 0.0000 90.8716 -0.4549 12.0430 -16.5284 26.2318 -3.8766 0.0000 0.0000 1.9834 -12.9776 -55.2476 10.7219 7.1250 -0.0000 -0.0000 75.5794 -76.5837 -61.8592
8.9271 16.2736 31.4760 179.8930 -0.3125 -161.4700 0.0000 0.0000 0.0000 -18.3892 -14.4481 -11.8416 0.1747 2.6922 7.4229 0.2500 -0.0889 -9.4127 4.6017 -12.9207 -39.0724 0.0000 0.0000 0.0000 19.2889 11.4358 -11.7443 -0.1551 -2.5379 6.9946 -2.0989 3.1841 -26.6025 -0.7448 5.5126 -15.3766 -4.6673 -0.8883 -24.0049 -0.5818 -0.0523 0.1256 1.9711 -0.4345 13.6765 -4.1246 -2.6014 1.3817 7.4902 -3.5883 -13.1934 3.1253 -2.2511 -3.9324 -0.0000 0.0000 0.0000 -84.4856 -5.1637 17.2628 14.4086 -23.3158 -2.9879 -0.0000 0.0000 -6.5953 22.7626 -11.6920 -4.8602 -7.1250 0.0000 -0.0000 -3.0754 17.3422 2.0218 -0.0000 0.0000 0.0000 90.8432 -0.7372 11.7715 -16.3326 25.9696 -3.7904 0.0000 0.0000 1.8615 -13.0715 -55.1292 10.7853 7.1250 -0.0000 -0.0000 75.0681 -76.6030 -61.3902
8.9244 16.2709 31.4809 179.6870 -0.3686 -161.2290 0.0000 0.0000 0.0000 -18.5936 -14.6070 -12.1551 0.1795 2.7292 7.5258 0.2490 -0.0889 -9.3934 4.8770 -13.2439 -40.2884 0.0000 0.0000 0.0000 18.9768 11.7683 -12.2544 -0.1839 -2.7622 7.6175 -2.1572 3.0533 -27.0114 -0.7360 5.4807 -15.2849 -4.8360 -0.9652 -24.1408 -0.6258 -0.1170 -0.0105 1.9935 -0.4781 13.5974 -4.1668 -2.6178 1.4146 7.5438 -3.6032 -13.1262 3.1481 -2.2560 -3.9145 -0.0000 0.0000 0.0000 -84.5001 -4.9265 16.8863 14.0142 -22.7549 -2.8336 -0.0000 0.0000 -5.8868 22.3816 -11.9189 -4.8611 -7.1250 0.0000 -0.0000 -3.3508 17.1348 2.2187 -0.0000 0.0000 0.0000 90.8319 -0.9900 11.4376 -16.1847 25.7705 -3.7259 0.0000 0.0000 1.8311 -12.9016 -54.7913 10.6006 7.1250 -0.0000 -0.0000 73.6821 -76.4874 -59.9399
8.9239 16.2645 31.4790 179.7950 -0.3418 -161.1310 0.0000 0.0000 0.0000 -18.4231 -14.6628 -12.2551 0.1790 2.7253 7.5150 0.2458 0.0417 -9.3803 5.1314 -13.5302 -41.3873 0.0000 0.0000 0.0000 19.0742 11.4746 -12.1957 -0.1565 -2.5492 7.0261 -2.0930 3.2443 -26.5516 -0.7393 5.4927 -15.3194 -4.7024 -0.9454 -24.2321 -0.6187 -0.1329 -0.0652 1.9189 -0.4783 13.5847 -4.1498 -2.6417 1.3415 7.6121 -3.6227 -12.9474 3.1609 -2.2630 -3.8457 -0.0000 -0.0000 0.0000 -84.4616 -4.8384 16.2473 13.6388 -22.2160 -2.6900 -0.0000 0.0000 -5.4832 22.0234 -12.1471 -4.8650 -7.1250 0.0000 -0.0000 -3.6096 16.9248 2.4073 -0.0000 -0.0000 0.0000 90.9110 -1.2169 11.0657 -16.1222 25.6860 -3.6988 0.0000 0.0000 1.9170 -12.7524 -54.5556 10.4468 7.1250 -0.0000 -0.0000 72.7384 -76.3898 -58.9372
8.9246 16.2595 31.4857 179.8460 -0.3432 -160.8660 0.0000 0.0000 0.0000 -18.2229 -14.7907 -12.6522 0.1842 2.7646 7.6240 0.2434 -0.0096 -9.3154 4.9135 -13.2857 -40.4477 0.0000 0.0000 0.0000 19.0493 11.9651 -12.6201 -0.1772 -2.7113 7.4759 -2.0967 2.9487 -26.6377 -0.7685 5.5979 -15.6222 -4.6470 -0.9424 -24.3278 -0.6376 -0.1609 -0.2150 1.8548 -0.4897 13.4632 -4.2789 -2.6139 1.2764 7.7585 -3.5615 -12.5936 3.2153 -2.2182 -3.7256 0.0000 -0.0000 0.0000 -84.3334 -4.7102 15.6794 13.4148 -21.8919 -2.6059 -0.0000 0.0000 -5.9228 22.2941 -12.5234 -5.0806 -7.1250 0.0000 -0.0000 -3.4373 16.4962 2.3240 0.0000 -0.0000 0.0000 91.0091 -1.4476 10.6180 -15.9866 25.5025 -3.6402 0.0000 0.0000 2.0925 -12.6638 -54.3002 10.3411 7.1250 -0.0000 -0.0000 71.7133 -76.3068 -57.8789
8.9300 16.2571 31.4994 179.9080 -0.3821 -160.6120 0.0000 0.0000 0.0000 -17.9551 -14.7702 -13.2056 0.1939 2.8358 7.8221 0.2417 -0.2008 -9.2170 4.7162 -13.0569 -39.5818 0.0000 0.0000 0.0000 19.0442 12.3653 -13.0015 -0.1902 -2.8083 7.7456 -1.2693 0.2422 -21.2317 -3.0025 10.6992 -31.2719 -4.6658 -0.9641 -24.3075 -0.6199 -0.2166 -0.4122 1.8664 -0.5185 13.2236 -4.4316 -2.5648 1.3868 7.8922 -3.4743 -12.3484 3.2752 -2.1627 -3.6694 -0.0000 -0.0000 0.0000 -84.1749 -4.4265 15.4768 13.1720 -21.5387 -2.5161 -0.0000 0.0000 -6.3376 22.1291 -12.8275 -5.1588 -7.1250 0.0000 -0.0000 -3.5650 16.1876 2.4346 -0.0000 -0.0000 0.0000 91.0148 -1.7289 10.2711 -15.8069 25.2581 -3.5632 0.0000 0.0000 2.1090 -12.5281 -53.8787 10.1759 7.1250 -0.0000 -0.0000 70.0492 -76.1631 -56.1630
8.9350 16.2578 31.5076 180.0130 -0.4635 -160.6440 0.0000 0.0000 0.0000 -17.7493 -14.7035 -13.3310 0.1995 2.8759 7.9335 0.2427 -0.3190 -9.1973 4.6882 -13.0238 -39.4577 0.0000 0.0000 0.0000 19.1937 12.5337 -12.9763 -0.1943 -2.8384 7.8292 -1.2939 0.2169 -21.4468 -2.8711 10.4833 -30.5566 -4.6189 -0.9678 -24.2212 -0.6042 -0.2377 -0.4048 1.8507 -0.5234 13.1854 -4.4232 -2.5928 1.4985 7.9965 -3.5037 -12.4012 3.3101 -2.1859 -3.6997 0.0000 0.0000 0.0000 -84.0480 -4.3874 15.0290 12.8398 -21.0521 -2.3954 -0.0000 0.0000 -6.2651 21.9508 -13.0883 -5.2147 -7.1250 0.0000 -0.0000 -3.6997 15.9274 2.5478 0.0000 0.0000 0.0000 91.0535 -1.7963 9.8268 -15.6254 25.0101 -3.4861 0.0000 0.0000 2.1595 -12.4023 -53.5513 10.0313 7.1250 -0.0000 -0.0000 68.7899 -76.0349 -54.8534
8.9349 16.2584 31.5095 180.0420 -0.5330 -160.7000 0.0000 0.0000 0.0000 -17.7003 -14.7997 -13.2618 0.2014 2.8896 7.9715 0.2478 -0.3409 -9.2871 4.5032 -12.8015 -38.6298 0.0000 0.0000 0.0000 19.2515 12.4786 -12.9554 -0.1963 -2.8532 7.8702 -1.2948 0.2086 -21.4573 -2.7778 10.3264 -30.0402 -4.6085 -0.9464 -24.1300 -0.6286 -0.2136 -0.4125 1.8260 -0.5091 13.1237 -4.2249 -2.6767 1.5318 7.9544 -3.6111 -12.3710 3.2673 -2.2448 -3.6942 0.0000 -0.0000 0.0000 -84.0608 -3.5311 18.4008 12.0142 -19.8259 -2.1071 -0.0000 0.0000 -0.9486 22.0275 -13.3768 -5.3474 -7.1250 0.0000 -0.0000 -3.6601 15.6118 2.5454 0.0000 -0.0000 0.0000 91.1551 -1.9582 9.2273 -15.4869 24.8201 -3.4277 0.0000 0.0000 2.2388 -12.2806 -53.2773 9.8973 7.1250 -0.0000 -0.0000 67.7622 -75.9154 -53.7754
8.9323 16.2593 31.5083 180.0180 -0.5497 -160.7140 0.0000 0.0000 0.0000 -17.7503 -14.8070 -13.2246 0.2011 2.8874 7.9655 0.2505 -0.3937 -9.3209 4.3764 -12.6451 -38.0540 0.0000 0.0000 0.0000 19.2245 12.4026 -12.9657 -0.1974 -2.8610 7.8920 -1.2963 0.2563 -21.4540 -2.7454 10.2711 -29.8592 -4.6213 -1.0792 -24.1560 -0.5305 -0.3946 -0.4059 1.8819 -0.5964 13.1592 -4.4382 -3.3576 1.3857 8.0377 -3.3543 -12.0654 3.2774 -1.5908 -3.5758 0.0000 0.0000 0.0000 -84.2757 -3.3619 17.3474 11.6221 -19.2355 -1.9760 -0.0000 0.0000 -0.1059 21.6989 -13.5843 -5.3395 -7.1250 0.0000 -0.0000 -3.8954 15.4252 2.7254 0.0000 0.0000 0.0000 90.9288 -2.0837 9.1170 -15.3349 24.6105 -3.3642 0.0000 0.0000 2.2505 -12.1753 -53.0014 9.7768 7.1250 -0.0000 -0.0000 66.7398 -75.7964 -52.7091
8.9296 16.2589 31.5070 180.0480 -0.5349 -160.7180 0.0000 0.0000 0.0000 -17.7459 -14.8372 -13.1749 0.1998 2.8783 7.9402 0.2503 -0.3305 -9.3385 4.3889 -12.6607 -38.1114 0.0000 0.0000 0.0000 19.2581 12.3958 -12.9292 -0.1954 -2.8463 7.8512 -1.3006 0.3177 -21.4696 -2.7557 10.2886 -29.9166 -4.5440 -1.0241 -24.2259 -0.6039 -0.3277 -0.3710 1.7765 -0.5593 13.2335 -4.2698 -2.7025 1.3504 8.0155 -3.6371 -12.0710 3.2832 -2.2465 -3.5696 -0.0000 0.0000 0.0000 -84.2041 -3.2483 17.3569 11.1716 -18.5508 -1.8301 -0.0000 -0.0000 1.7532 21.4844 -13.7132 -5.3306 -7.1250 0.0000 -0.0000 -4.0483 15.3107 2.8429 -0.0000 0.0000 0.0000 91.0910 -2.1851 8.5866 -15.2035 24.4288 -3.3096 0.0000 0.0000 2.2833 -12.0580 -52.7565 9.6509 7.1250 -0.0000 -0.0000 65.8586 -75.6774 -51.7776
8.9278 16.2576 31.5078 180.1570 -0.5840 -160.7580 0.0000 0.0000 0.0000 -17.6273 -14.8880 -13.1175 0.1994 2.8758 7.9331 0.2485 -0.2416 -9.3335 4.4414 -12.7257 -38.3503 0.0000 0.0000 0.0000 19.4048 12.3212 -12.8870 -0.1938 -2.8354 7.8207 -1.2995 0.3357 -21.4549 -2.7854 10.3393 -30.0827 -4.4080 -1.0254 -24.2375 -0.5980 -0.3580 -0.3108 1.6945 -0.5636 13.3119 -4.2328 -2.7247 1.2881 8.0618 -3.6634 -12.0273 3.2898 -2.2628 -3.5440 0.0000 -0.0000 0.0000 -84.3076 -3.2143 17.0108 10.5606 -17.6116 -1.6405 -0.0000 -0.0000 4.6855 21.3322 -13.8140 -5.3273 -7.1250 0.0000 -0.0000 -4.1571 15.2196 2.9278 0.0000 -0.0000 0.0000 91.1537 -2.1540 8.1582 -15.0075 24.1565 -3.2290 0.0000 0.0000 2.3838 -11.9012 -52.4406 9.4848 7.1250 -0.0000 -0.0000 64.7486 -75.5160 -50.5989
8.9371 16.2479 31.5025 181.2220 -0.6781 -161.2990 0.0000 0.0000 0.0000 -16.3150 -14.4103 -12.6664 0.1938 2.8350 7.8198 0.2447 -0.1498 -9.2913 4.5597 -12.8702 -38.8843 0.0000 0.0000 0.0000 20.8332 12.8653 -12.0648 -0.1916 -2.8190 7.7753 -1.2934 -0.1077 -21.5519 -2.7663 10.3068 -29.9762 -3.4382 -0.8294 -23.8546 -0.3325 -0.3757 -0.1062 1.4390 -0.5034 13.3335 -4.1549 -3.4698 1.1678 8.1611 -3.4825 -11.8439 3.2635 -1.6648 -3.4678 0.0000 0.0000 0.0000 -84.3377 -3.2526 16.2722 9.9089 -16.5970 -1.4488 -0.0000 -0.0000 7.2579 21.1852 -13.8934 -5.3168 -7.1250 0.0000 -0.0000 -4.2612 15.1508 3.0079 0.0000 0.0000 0.0000 91.2874 -2.0768 7.6177 -14.7823 23.8420 -3.1374 0.0000 0.0000 2.6857 -11.7736 -52.1042 9.3403 7.1250 -0.0000 -0.0000 63.5765 -75.3523 -49.3705
8.9394 16.2447 31.5001 181.5840 -0.6843 -161.4950 0.0000 0.0000 0.0000 -15.8851 -14.2671 -12.4674 0.1917 2.8196 7.7769 0.2411 -0.0749 -9.2472 4.7633 -13.1122 -39.7898 0.0000 0.0000 0.0000 21.3203 13.1759 -11.7656 -0.1939 -2.8355 7.8210 -1.2940 -0.3805 -21.6522 -2.7751 10.3218 -30.0252 -3.1238 -0.7672 -23.7033 -0.2470 -0.3865 -0.0619 1.3537 -0.4865 13.2993 -4.1424 -3.4314 1.1665 8.1689 -3.4465 -11.7059 3.2606 -1.6511 -3.4287 -0.0000 0.0000 0.0000 -84.3423 -3.2519 15.0547 9.4465 -15.8691 -1.3195 -0.0000 -0.0000 8.3197 21.0248 -14.0263 -5.3221 -7.1250 0.0000 -0.0000 -4.3767 15.0270 3.1015 -0.0000 0.0000 0.0000 91.3577 -2.2762 7.2745 -14.6662 23.6791 -3.0906 0.0000 0.0000 2.7880 -11.8811 -51.7278 9.3790 7.1250 -0.0000 -0.0000 62.1582 -75.2565 -48.0052
8.9374 16.2445 31.5024 181.5040 -0.6917 -161.4320 0.0000 0.0000 0.0000 -15.9813 -14.3661 -12.5440 0.1957 2.8489 7.8584 0.2409 -0.0549 -9.2509 4.9175 -13.2903 -40.4651 0.0000 0.0000 0.0000 21.2119 13.1929 -11.8967 -0.1991 -2.8735 7.9268 -1.2949 -0.4647 -21.6896 -2.8059 10.3741 -30.1968 -3.2120 -0.8048 -23.7124 -0.2644 -0.4131 -0.0855 1.3751 -0.5047 13.2787 -4.1702 -3.3815 1.0619 7.9147 -3.4455 -11.2033 3.5212 -1.6143 -3.6402 0.0000 0.0000 0.0000 -84.3553 -3.3175 13.7557 9.0770 -15.2831 -1.2203 -0.0000 -0.0000 8.8408 20.8542 -14.2050 -5.3406 -7.1250 0.0000 -0.0000 -4.5009 14.8560 3.2066 0.0000 0.0000 0.0000 91.3630 -2.4541 6.9253 -14.5634 23.5343 -3.0495 0.0000 0.0000 2.8624 -13.3229 -52.3434 10.6186 7.1250 -0.0000 -0.0000 63.6886 -76.0311 -50.1938
